<?xml version="1.0" encoding="UTF-8"?>
<svg width="36px" height="36px" viewBox="0 0 36 36" version="1.1" xmlns="http://www.w3.org/2000/svg" xmlns:xlink="http://www.w3.org/1999/xlink">
    <!-- Generator: Sketch 43.2 (39069) - http://www.bohemiancoding.com/sketch -->
    <title>Group 2</title>
    <desc>Created with Sketch.</desc>
    <defs></defs>
    <g id="Symbols" stroke="none" stroke-width="1" fill="none" fill-rule="evenodd">
        <g id="Added-to-Cart">
            <g id="Group-2">
                <polygon id="Rectangle-3" fill="#FFBE00" points="0 0 36 0 0 36"></polygon>
                <g id="Page-1" transform="translate(3.000000, 3.000000)" stroke="#FFFFFF" stroke-linecap="round" stroke-linejoin="round">
                    <path d="M13.1133032,10.4772839 L5.86265806,10.4772839 C4.72143226,10.4772839 3.7464,9.65489677 3.55310968,8.52992903 L2.12962581,0.225670968 L0.225625806,0.225670968" id="Stroke-1"></path>
                    <path d="M2.569,2.569 L13.9920968,2.569 L13.2785484,5.95790323 C13.0080323,7.24454839 11.912871,8.19293548 10.6013871,8.27783871 L3.59596774,8.72945161" id="Stroke-3" fill="#FFFFFF"></path>
                    <path d="M5.79094194,12.6738387 C5.79094194,13.2401613 5.33210323,13.6994516 4.76578065,13.6994516 C4.19990968,13.6994516 3.74061935,13.2401613 3.74061935,12.6738387 C3.74061935,12.1079677 4.19990968,11.6486774 4.76578065,11.6486774 C5.33210323,11.6486774 5.79094194,12.1079677 5.79094194,12.6738387 Z" id="Stroke-5" fill="#FFFFFF"></path>
                    <path d="M12.8202516,12.6738387 C12.8202516,13.2401613 12.3614129,13.6994516 11.7950903,13.6994516 C11.2292194,13.6994516 10.769929,13.2401613 10.769929,12.6738387 C10.769929,12.1079677 11.2292194,11.6486774 11.7950903,11.6486774 C12.3614129,11.6486774 12.8202516,12.1079677 12.8202516,12.6738387 Z" id="Stroke-7" fill="#FFFFFF"></path>
                </g>
            </g>
        </g>
    </g>
</svg>