<?xml version="1.0" encoding="UTF-8"?>
<svg width="69px" height="52px" viewBox="0 0 69 52" version="1.1" xmlns="http://www.w3.org/2000/svg" xmlns:xlink="http://www.w3.org/1999/xlink">
    <!-- Generator: Sketch 43.2 (39069) - http://www.bohemiancoding.com/sketch -->
    <title>Group</title>
    <desc>Created with Sketch.</desc>
    <defs></defs>
    <g id="Checkout---Various-Fees" stroke="none" stroke-width="1" fill="none" fill-rule="evenodd">
        <g id="Checkout---Monthly-Subscription" transform="translate(-57.000000, -225.000000)">
            <g id="Group" transform="translate(59.000000, 227.000000)">
                <g id="Page-1" stroke="#FFBE00" stroke-width="4" stroke-linecap="round" stroke-linejoin="round">
                    <path d="M19.5599401,40.7712288 C19.5599401,44.6507213 16.4376953,47.7942058 12.5844156,47.7942058 C8.73113586,47.7942058 5.60889111,44.6507213 5.60889111,40.7712288 C5.60889111,36.8917363 8.73113586,33.7482517 12.5844156,33.7482517 C16.4376953,33.7482517 19.5599401,36.8917363 19.5599401,40.7712288 Z" id="Stroke-1"></path>
                    <polyline id="Stroke-3" points="19.4209876 39.3666334 41.8821764 39.3666334 41.8821764 19.7022977 41.8821764 0.037962038 0.0290295704 0.037962038 0.0290295704 39.3666334 5.74895964 39.3666334"></polyline>
                    <path d="M44.8107806,38.1818182 L41.8810603,38.1818182" id="Stroke-5"></path>
                    <polyline id="Stroke-7" points="41.8816184 22.5114885 64.2032967 22.5114885 64.2032967 39.3666334 58.4833666 39.3666334"></polyline>
                    <polyline id="Stroke-9" points="64.2032967 22.5114885 55.8326673 8.46553447 41.8816184 8.46553447"></polyline>
                    <path d="M58.6228771,40.7712288 C58.6228771,44.6507213 55.5006324,47.7942058 51.6473526,47.7942058 C47.7940729,47.7942058 44.6718282,44.6507213 44.6718282,40.7712288 C44.6718282,36.8917363 47.7940729,33.7482517 51.6473526,33.7482517 C55.5006324,33.7482517 58.6228771,36.8917363 58.6228771,40.7712288 Z" id="Stroke-11"></path>
                    <path d="M0.0284715285,27.2727273 L41.8816184,27.2727273" id="Stroke-13"></path>
                </g>
                <rect id="Rectangle-2" fill="#FFBE00" x="2" y="2" width="38" height="24"></rect>
            </g>
        </g>
    </g>
</svg>