<?xml version="1.0" encoding="UTF-8"?>
<svg width="200px" height="200px" viewBox="0 0 200 200" version="1.1" xmlns="http://www.w3.org/2000/svg" xmlns:xlink="http://www.w3.org/1999/xlink">
    <!-- Generator: Sketch 43.2 (39069) - http://www.bohemiancoding.com/sketch -->
    <title>empty-cart</title>
    <desc>Created with Sketch.</desc>
    <defs></defs>
    <g id="Cart" stroke="none" stroke-width="1" fill="none" fill-rule="evenodd">
        <g id="Cart---Empty" transform="translate(-260.000000, -406.000000)">
            <g id="empty-cart" transform="translate(260.000000, 406.000000)">
                <circle id="Oval-2" fill="#F5F8FA" cx="100" cy="100" r="100"></circle>
                <g id="Page-1" transform="translate(50.000000, 54.000000)" stroke="#000000" stroke-width="4" stroke-linecap="round" stroke-linejoin="round">
                    <path d="M99.2341083,78.3339837 L43.4037611,78.3339837 C34.6175389,78.3339837 27.1069972,72.0502532 25.6200528,63.4559624 L14.6593583,0.000657446809 L-0.000294444444,0.000657446809" id="Stroke-1"></path>
                    <path d="M18.0425986,17.9049794 L105.999779,17.9049794 L100.505446,43.8010787 C98.4222514,53.6313695 89.9908347,60.8778943 79.8899181,61.5243837 L25.9513764,64.9781709" id="Stroke-3"></path>
                    <path d="M42.8511625,95.1196965 C42.8511625,99.446427 39.3170931,102.954271 34.9571069,102.954271 C30.5978569,102.954271 27.0637875,99.446427 27.0637875,95.1196965 C27.0637875,90.7951574 30.5978569,87.2873135 34.9571069,87.2873135 C39.3170931,87.2873135 42.8511625,90.7951574 42.8511625,95.1196965 Z" id="Stroke-5"></path>
                    <path d="M96.9782958,95.1196965 C96.9782958,99.446427 93.4449625,102.954271 89.0849764,102.954271 C84.7249903,102.954271 81.1916569,99.446427 81.1916569,95.1196965 C81.1916569,90.7951574 84.7249903,87.2873135 89.0849764,87.2873135 C93.4449625,87.2873135 96.9782958,90.7951574 96.9782958,95.1196965 Z" id="Stroke-7"></path>
                </g>
            </g>
        </g>
    </g>
</svg>