<?xml version="1.0" encoding="UTF-8"?>
<svg width="250px" height="250px" viewBox="0 0 250 250" version="1.1" xmlns="http://www.w3.org/2000/svg" xmlns:xlink="http://www.w3.org/1999/xlink">
    <!-- Generator: Sketch 43.2 (39069) - http://www.bohemiancoding.com/sketch -->
    <title>empty-staff</title>
    <desc>Created with Sketch.</desc>
    <defs></defs>
    <g id="Co-Workers" stroke="none" stroke-width="1" fill="none" fill-rule="evenodd">
        <g id="My-Staff---No-Results" transform="translate(-235.000000, -354.000000)">
            <g id="empty-staff" transform="translate(235.000000, 354.000000)">
                <circle id="Oval-2" fill="#F5F8FA" cx="125" cy="125" r="125"></circle>
                <g id="Page-1" transform="translate(126.000000, 86.000000)">
                    <path d="M51.8122159,70.977287 L74.1230114,64.4202 C78.384375,23.7109826 66.7985795,3.3885913 45.9980114,3.3885913 L42.5889205,0.00067826087 C8.49801136,0.00067826087 -3.43380682,23.7330261 0.827556818,64.4202 L22.621875,70.8585913" id="Stroke-1" stroke="#000000" stroke-width="4"></path>
                    <path d="M30.6818182,41.5409348 C30.6818182,43.8826304 28.7744318,45.7800652 26.4204545,45.7800652 C24.0664773,45.7800652 22.1590909,43.8826304 22.1590909,41.5409348 C22.1590909,39.2026304 24.0664773,37.3018043 26.4204545,37.3018043 C28.7744318,37.3018043 30.6818182,39.2026304 30.6818182,41.5409348" id="Fill-3" fill="#000000"></path>
                    <path d="M52.8409091,41.5434783 C52.8409091,43.8834783 50.9335227,45.7826087 48.5795455,45.7826087 C46.2255682,45.7826087 44.3181818,43.8834783 44.3181818,41.5434783 C44.3181818,39.2034783 46.2255682,37.3043478 48.5795455,37.3043478 C50.9335227,37.3043478 52.8409091,39.2034783 52.8409091,41.5434783" id="Fill-5" fill="#000000"></path>
                    <path d="M46.0227273,59.3478261 L45.45,60.2024348 C43.6772727,62.8459565 40.6943182,64.4347826 37.5,64.4347826 C34.3056818,64.4347826 31.3227273,62.8459565 29.55,60.2024348 L28.9772727,59.3478261" id="Stroke-7" stroke="#000000" stroke-width="4"></path>
                    <path d="M63.0681818,34.7551043 L63.0681818,43.2859304 C63.0681818,55.1215826 57.7823864,66.3434087 48.6409091,73.9229739 L48.5284091,74.0128435 C42.1397727,79.3083652 32.8602273,79.3083652 26.4715909,74.0162348 L20.2022727,68.8173652 C14.9625,64.4748 11.9318182,58.0398 11.9318182,51.2554957 L11.9318182,34.7551043 C11.9318182,34.7551043 44.3181818,27.1263652 44.3181818,15.2584957 C44.3181818,25.430713 63.0681818,34.7551043 63.0681818,34.7551043 Z" id="Stroke-9" stroke="#000000" stroke-width="4"></path>
                </g>
                <g id="Page-1" transform="translate(44.000000, 86.000000)">
                    <path d="M26.5531915,39.1838809 C26.5531915,41.4774128 24.6961277,43.332817 22.4042553,43.332817 C20.112383,43.332817 18.2553191,41.4774128 18.2553191,39.1838809 C18.2553191,36.8920085 20.112383,35.0349447 22.4042553,35.0349447 C24.6961277,35.0349447 26.5531915,36.8920085 26.5531915,39.1838809" id="Fill-3" fill="#000000"></path>
                    <path d="M48.1276596,39.1838809 C48.1276596,41.4774128 46.2705957,43.332817 43.9787234,43.332817 C41.6868511,43.332817 39.8297872,41.4774128 39.8297872,39.1838809 C39.8297872,36.8920085 41.6868511,35.0349447 43.9787234,35.0349447 C46.2705957,35.0349447 48.1276596,36.8920085 48.1276596,39.1838809" id="Fill-5" fill="#000000"></path>
                    <path d="M4.9787234,33.3753702 L4.9787234,25.9139234 C4.9787234,13.1750298 14.597617,2.49234894 27.2668085,1.15639149 L36.5106383,0.183880851 L36.5106383,5.16260426 C50.2585532,5.16260426 61.4042553,16.3083064 61.4042553,30.0562213 L61.4042553,33.3753702" id="Stroke-1" stroke="#000000" stroke-width="4"></path>
                    <path d="M43.1489362,56.6094128 L42.798766,57.3097532 C40.9798723,60.9492 37.2591064,63.2477106 33.1914894,63.2477106 C29.1238723,63.2477106 25.4031064,60.9492 23.5842128,57.3097532 L23.2340426,56.6094128" id="Stroke-7" stroke="#000000" stroke-width="4"></path>
                    <path d="M6.63829787,33.3753702 L13.2765957,28.3966468 L16.5957447,20.0987745 C16.5957447,20.0987745 23.2340426,16.7796255 33.1914894,16.7796255 C43.1489362,16.7796255 49.787234,20.0987745 49.787234,20.0987745 L53.106383,28.3966468 L59.7446809,33.3753702" id="Stroke-9" stroke="#000000" stroke-width="4"></path>
                    <path d="M8.29787234,43.332817 L8.29787234,37.5243064 C8.29787234,35.232434 6.44080851,33.3753702 4.14893617,33.3753702 C1.85706383,33.3753702 0,35.232434 0,37.5243064 L0,41.6732426 C0,46.2569872 3.71578723,49.9711149 8.29787234,49.9711149 C8.29787234,56.3007319 11.0245532,62.3216681 15.7825532,66.4971574 L21.8599149,71.8293702 C24.8637447,74.8348596 28.9396596,76.5243064 33.1914894,76.5243064 C37.4416596,76.5243064 41.5175745,74.8348596 44.5230638,71.8293702 L50.6004255,66.4971574 C55.356766,62.3216681 58.0851064,56.3007319 58.0851064,49.9711149 C62.6671915,49.9711149 66.3829787,46.2569872 66.3829787,41.6732426 L66.3829787,37.5243064 C66.3829787,35.232434 64.5259149,33.3753702 62.2340426,33.3753702 C59.9421702,33.3753702 58.0851064,35.232434 58.0851064,37.5243064 L58.0851064,43.332817" id="Stroke-11" stroke="#000000" stroke-width="4"></path>
                </g>
            </g>
        </g>
    </g>
</svg>