<?xml version="1.0" encoding="UTF-8"?>
<svg width="19px" height="23px" viewBox="0 0 19 23" version="1.1" xmlns="http://www.w3.org/2000/svg" xmlns:xlink="http://www.w3.org/1999/xlink">
    <!-- Generator: Sketch 43.2 (39069) - http://www.bohemiancoding.com/sketch -->
    <title>Page 1</title>
    <desc>Created with Sketch.</desc>
    <defs></defs>
    <g id="Checkout---Various-Fees" stroke="none" stroke-width="1" fill="none" fill-rule="evenodd">
        <g id="Checkout---Monthly-Subscription" transform="translate(-34.000000, -452.000000)" stroke="#95A5A6" stroke-width="2">
            <g id="Page-1" transform="translate(35.000000, 453.000000)">
                <path d="M14.1878752,2.41552174 L14.233471,2.46073913 C17.4685799,5.68117391 17.4685799,10.902913 14.233471,14.1233478 L8.33013153,19.9998696 L2.42679205,14.1233478 C-0.809193737,10.902913 -0.809193737,5.68117391 2.42679205,2.46073913 L2.47194942,2.41552174 C5.70705837,-0.805347826 10.9527663,-0.805347826 14.1878752,2.41552174 Z" id="Stroke-1"></path>
                <path d="M10.5139506,8.26086957 C10.5139506,9.46130435 9.53627168,10.4347826 8.33017537,10.4347826 C7.12407905,10.4347826 6.14640011,9.46130435 6.14640011,8.26086957 C6.14640011,7.06043478 7.12407905,6.08695652 8.33017537,6.08695652 C9.53627168,6.08695652 10.5139506,7.06043478 10.5139506,8.26086957 Z" id="Stroke-3"></path>
            </g>
        </g>
    </g>
</svg>