<?xml version="1.0" encoding="UTF-8"?>
<svg width="534px" height="255px" viewBox="0 0 534 255" version="1.1" xmlns="http://www.w3.org/2000/svg" xmlns:xlink="http://www.w3.org/1999/xlink">
    <!-- Generator: Sketch 43.2 (39069) - http://www.bohemiancoding.com/sketch -->
    <title>logged-in-asset-2</title>
    <desc>Created with Sketch.</desc>
    <defs></defs>
    <g id="Page-1" stroke="none" stroke-width="1" fill="none" fill-rule="evenodd">
        <g id="non-logged-in-state-3" transform="translate(0.000000, -283.000000)">
            <g id="logged-in-asset-2" transform="translate(-82.000000, 283.000000)">
                <path d="M605.229555,139.812914 L593.41925,139.812914 C589.293118,128.208443 578.339932,119.839641 565.363546,119.839641 C552.387159,119.839641 541.433973,128.208443 537.307841,139.812914 L535.464038,139.812914 L535.464038,89.8797307 L605.229555,89.8797307 L605.229555,139.812914 Z M565.363546,169.772825 C554.370493,169.772825 545.430541,160.814812 545.430541,149.799551 C545.430541,138.784291 554.370493,129.826278 565.363546,129.826278 C576.356598,129.826278 585.29655,138.784291 585.29655,149.799551 C585.29655,160.814812 576.356598,169.772825 565.363546,169.772825 L565.363546,169.772825 Z M535.464038,39.946547 L577.492779,39.946547 L601.412385,79.893094 L535.464038,79.893094 L535.464038,39.946547 Z M385.966502,99.8663675 L525.497536,99.8663675 L525.497536,9.98663675 L385.966502,9.98663675 L385.966502,99.8663675 Z M525.497536,139.812914 L453.888216,139.812914 C449.762084,128.208443 438.808898,119.839641 425.832512,119.839641 C412.856126,119.839641 401.90294,128.208443 397.776808,139.812914 L385.966502,139.812914 L385.966502,109.853004 L525.497536,109.853004 L525.497536,139.812914 Z M425.832512,169.772825 C414.83946,169.772825 405.899507,160.814812 405.899507,149.799551 C405.899507,138.784291 414.83946,129.826278 425.832512,129.826278 C436.825564,129.826278 445.765517,138.784291 445.765517,149.799551 C445.765517,160.814812 436.825564,169.772825 425.832512,169.772825 L425.832512,169.772825 Z M614.936928,83.5781629 C614.84723,83.2486039 614.747565,82.9390182 614.598067,82.6294324 C614.548235,82.5295661 614.548235,82.4197131 614.488436,82.3198467 L584.588929,32.386663 C583.691943,30.8786808 582.067404,29.9599102 580.313299,29.9599102 L535.464038,29.9599102 L535.464038,4.99331837 C535.464038,2.23700663 533.231542,0 530.480787,0 L380.983251,0 C378.232497,0 376,2.23700663 376,4.99331837 L376,144.806233 C376,147.562545 378.232497,149.799551 380.983251,149.799551 L395.933005,149.799551 C395.933005,166.317448 409.347917,179.759461 425.832512,179.759461 C442.317107,179.759461 455.732019,166.317448 455.732019,149.799551 L530.480787,149.799551 L535.464038,149.799551 C535.464038,166.317448 548.878951,179.759461 565.363546,179.759461 C581.848141,179.759461 595.263053,166.317448 595.263053,149.799551 L610.212806,149.799551 C612.963561,149.799551 615.196058,147.562545 615.196058,144.806233 L615.196058,84.8864123 C615.196058,84.7665727 615.136259,84.6667063 615.126292,84.5468667 C615.106359,84.2173077 615.016661,83.9077219 614.936928,83.5781629 L614.936928,83.5781629 Z" id="Page-1" fill="#231F1F"></path>
                <path d="M229.229555,214.812914 L217.41925,214.812914 C213.293118,203.208443 202.339932,194.839641 189.363546,194.839641 C176.387159,194.839641 165.433973,203.208443 161.307841,214.812914 L159.464038,214.812914 L159.464038,164.879731 L229.229555,164.879731 L229.229555,214.812914 Z M189.363546,244.772825 C178.370493,244.772825 169.430541,235.814812 169.430541,224.799551 C169.430541,213.784291 178.370493,204.826278 189.363546,204.826278 C200.356598,204.826278 209.29655,213.784291 209.29655,224.799551 C209.29655,235.814812 200.356598,244.772825 189.363546,244.772825 L189.363546,244.772825 Z M159.464038,114.946547 L201.492779,114.946547 L225.412385,154.893094 L159.464038,154.893094 L159.464038,114.946547 Z M9.9665024,174.866367 L149.497536,174.866367 L149.497536,84.9866367 L9.9665024,84.9866367 L9.9665024,174.866367 Z M149.497536,214.812914 L77.8882162,214.812914 C73.7620842,203.208443 62.8088981,194.839641 49.832512,194.839641 C36.8561259,194.839641 25.9029397,203.208443 21.7768077,214.812914 L9.9665024,214.812914 L9.9665024,184.853004 L149.497536,184.853004 L149.497536,214.812914 Z M49.832512,244.772825 C38.8394598,244.772825 29.8995072,235.814812 29.8995072,224.799551 C29.8995072,213.784291 38.8394598,204.826278 49.832512,204.826278 C60.8255641,204.826278 69.7655168,213.784291 69.7655168,224.799551 C69.7655168,235.814812 60.8255641,244.772825 49.832512,244.772825 L49.832512,244.772825 Z M238.936928,158.578163 C238.84723,158.248604 238.747565,157.939018 238.598067,157.629432 C238.548235,157.529566 238.548235,157.419713 238.488436,157.319847 L208.588929,107.386663 C207.691943,105.878681 206.067404,104.95991 204.313299,104.95991 L159.464038,104.95991 L159.464038,79.9933184 C159.464038,77.2370066 157.231542,75 154.480787,75 L4.9832512,75 C2.23249654,75 0,77.2370066 0,79.9933184 L0,219.806233 C0,222.562545 2.23249654,224.799551 4.9832512,224.799551 L19.9330048,224.799551 C19.9330048,241.317448 33.347917,254.759461 49.832512,254.759461 C66.317107,254.759461 79.7320192,241.317448 79.7320192,224.799551 L154.480787,224.799551 L159.464038,224.799551 C159.464038,241.317448 172.878951,254.759461 189.363546,254.759461 C205.848141,254.759461 219.263053,241.317448 219.263053,224.799551 L234.212806,224.799551 C236.963561,224.799551 239.196058,222.562545 239.196058,219.806233 L239.196058,159.886412 C239.196058,159.766573 239.136259,159.666706 239.126292,159.546867 C239.106359,159.217308 239.016661,158.907722 238.936928,158.578163 L238.936928,158.578163 Z" id="Page-1" fill="#231F1F"></path>
                <rect id="Rectangle-3" fill="#000000" x="326" y="92" width="41.6109864" height="8.32219729" rx="4.16109864"></rect>
                <rect id="Rectangle-3" fill="#000000" x="342" y="109" width="24.9665919" height="8.32219729" rx="4.16109864"></rect>
            </g>
        </g>
    </g>
</svg>