<?xml version="1.0" encoding="UTF-8"?>
<svg width="336px" height="448px" viewBox="0 0 336 448" version="1.1" xmlns="http://www.w3.org/2000/svg" xmlns:xlink="http://www.w3.org/1999/xlink">
    <!-- Generator: Sketch 43.2 (39069) - http://www.bohemiancoding.com/sketch -->
    <title>logged-in-asset-3</title>
    <desc>Created with Sketch.</desc>
    <defs>
        <polygon id="path-1" points="335.382388 6.6317322e-14 0 6.6317322e-14 0 447.9944 335.382388 447.9944 335.382388 0"></polygon>
        <polygon id="path-3" points="242.358789 242.360656 93.0273224 242.360656 93.0273224 93.0304335 242.358789 93.0304335"></polygon>
        <polygon id="path-5" points="93.0273224 242.360656 242.360656 242.360656 242.360656 93.0273224 93.0273224 93.0273224"></polygon>
    </defs>
    <g id="Page-1" stroke="none" stroke-width="1" fill="none" fill-rule="evenodd">
        <g id="non-logged-in-state-4" transform="translate(-34.000000, -141.000000)">
            <g id="logged-in-asset-3" transform="translate(34.000000, 141.000000)">
                <mask id="mask-2" fill="white">
                    <use xlink:href="#path-1"></use>
                </mask>
                <g id="Clip-2"></g>
                <path d="M243.26249,296.551733 C241.939571,297.335733 240.802979,298.455733 240.001774,299.799733 L167.688399,420.535733 L95.3750247,299.799733 C94.5924527,298.455733 93.4558601,297.335733 92.1329409,296.551733 C46.7996658,269.727733 18.6270757,220.485067 18.6270757,167.9944 C18.6270757,85.6557333 85.499712,18.6610667 167.688399,18.6610667 C249.877087,18.6610667 316.749723,85.6557333 316.749723,167.9944 C316.749723,220.485067 288.595765,269.727733 243.26249,296.551733 M167.688399,-0.0056 C75.2144806,-0.0056 -0.00558979964,75.3517333 -0.00558979964,167.9944 C-0.00558979964,226.253067 30.8314715,280.983733 80.6179536,311.391733 L159.713618,443.4584 C161.371926,446.277067 164.427683,447.9944 167.688399,447.9944 C170.967748,447.9944 174.004873,446.277067 175.681813,443.4584 L254.777478,311.391733 C304.56396,280.983733 335.382388,226.253067 335.382388,167.9944 C335.382388,75.3517333 260.143685,-0.0056 167.688399,-0.0056" id="Fill-1" fill="#FFFFFF" mask="url(#mask-2)"></path>
                <mask id="mask-4" fill="white">
                    <use xlink:href="#path-3"></use>
                </mask>
                <g id="Clip-2"></g>
                <path d="M232.838789,144.102434 C231.768567,142.615322 230.561456,140.978878 229.043234,139.603767 C229.0059,139.560211 228.956122,139.5291 228.918789,139.485545 C227.033456,137.830434 224.669011,136.585989 221.365011,136.585989 C215.304567,136.585989 212.305456,140.748656 209.897456,144.102434 C207.638789,147.244656 206.232567,149.030434 203.482345,149.030434 C200.750789,149.030434 199.338345,147.244656 197.0859,144.102434 C194.6779,140.754878 191.691234,136.585989 185.624567,136.585989 C179.5579,136.585989 176.565011,140.748656 174.157011,144.102434 C171.898345,147.244656 170.4859,149.030434 167.7419,149.030434 C165.004122,149.030434 163.591678,147.244656 161.333011,144.102434 C158.925011,140.748656 155.932122,136.585989 149.859234,136.585989 C143.786345,136.585989 140.793456,140.748656 138.385456,144.102434 C136.126789,147.244656 134.708122,149.030434 131.970345,149.030434 C129.220122,149.030434 127.801456,147.244656 125.542789,144.102434 C123.128567,140.748656 120.129456,136.585989 114.056567,136.585989 C110.802345,136.585989 108.444122,137.7931 106.571234,139.423322 C106.4779,139.497989 106.390789,139.572656 106.303678,139.665989 C104.816567,141.022434 103.6219,142.633989 102.564122,144.102434 C101.3259,145.825989 100.342789,147.138878 99.247678,147.978878 L99.247678,124.141545 L236.136567,124.141545 L236.136567,147.966434 C235.0539,147.132656 234.070789,145.819767 232.838789,144.102434 L232.838789,144.102434 Z M217.4699,236.141545 L217.4699,177.030434 C217.4699,175.306878 216.082345,173.919322 214.358789,173.919322 L177.025456,173.919322 C175.308122,173.919322 173.914345,175.306878 173.914345,177.030434 L173.914345,236.141545 L111.692122,236.141545 L111.692122,143.4491 C112.395234,143.069545 113.1419,142.808211 114.056567,142.808211 C116.813011,142.808211 118.225456,144.587767 120.484122,147.729989 C122.898345,151.083767 125.897456,155.252656 131.970345,155.252656 C138.043234,155.252656 141.036122,151.083767 143.444122,147.729989 C145.702789,144.587767 147.121456,142.808211 149.859234,142.808211 C152.603234,142.808211 154.015678,144.587767 156.274345,147.729989 C158.682345,151.083767 161.675234,155.252656 167.7419,155.252656 C173.814789,155.252656 176.807678,151.083767 179.215678,147.729989 C181.474345,144.587767 182.886789,142.808211 185.624567,142.808211 C188.362345,142.808211 189.774789,144.587767 192.027234,147.729989 C194.435234,151.083767 197.428122,155.252656 203.482345,155.252656 C209.555234,155.252656 212.548122,151.083767 214.956122,147.729989 C217.214789,144.587767 218.627234,142.808211 221.365011,142.808211 C222.267234,142.808211 223.001456,143.063322 223.692122,143.430434 L223.692122,236.141545 L217.4699,236.141545 Z M180.136567,236.141545 L211.247678,236.141545 L211.247678,180.141545 L180.136567,180.141545 L180.136567,236.141545 Z M110.503678,99.2526557 L224.886789,99.2526557 L234.220122,117.919322 L101.170345,117.919322 L110.503678,99.2526557 Z M242.035234,119.636656 L229.590789,94.7477668 C229.0619,93.6899891 227.985456,93.0304335 226.803234,93.0304335 L108.581011,93.0304335 C107.405011,93.0304335 106.328567,93.6899891 105.799678,94.7477668 L93.3552335,119.636656 C93.3427891,119.661545 93.3490113,119.692656 93.3365668,119.723767 C93.1499002,120.121989 93.0254557,120.557545 93.0254557,121.030434 L93.0254557,152.141545 C93.0254557,153.858878 94.4192335,155.252656 96.1365668,155.252656 C100.560567,155.252656 103.348122,153.031322 105.4699,150.536211 L105.4699,239.252656 C105.4699,240.969989 106.863678,242.363767 108.581011,242.363767 L177.025456,242.363767 L214.358789,242.363767 L226.803234,242.363767 C228.526789,242.363767 229.914345,240.969989 229.914345,239.252656 L229.914345,150.517545 C232.036122,153.0251 234.817456,155.252656 239.247678,155.252656 C240.971234,155.252656 242.358789,153.858878 242.358789,152.141545 L242.358789,121.030434 C242.358789,120.557545 242.240567,120.121989 242.047678,119.723767 C242.041456,119.692656 242.041456,119.661545 242.035234,119.636656 L242.035234,119.636656 Z" id="Fill-1" fill="#000000" mask="url(#mask-4)"></path>
                <mask id="mask-6" fill="white">
                    <use xlink:href="#path-5"></use>
                </mask>
                <g id="Clip-5"></g>
                <path d="M124.138434,205.027322 L161.471767,205.027322 L161.471767,180.138434 L124.138434,180.138434 L124.138434,205.027322 Z M164.582878,173.916211 L121.027322,173.916211 C119.309989,173.916211 117.916211,175.309989 117.916211,177.027322 L117.916211,208.138434 C117.916211,209.855767 119.309989,211.249545 121.027322,211.249545 L164.582878,211.249545 C166.300211,211.249545 167.693989,209.855767 167.693989,208.138434 L167.693989,177.027322 C167.693989,175.309989 166.300211,173.916211 164.582878,173.916211 L164.582878,173.916211 Z" id="Fill-4" fill="#000000" mask="url(#mask-6)"></path>
                <path d="M201.916211,198.8051 C200.198878,198.8051 198.8051,200.198878 198.8051,201.916211 L198.8051,214.360656 C198.8051,216.077989 200.198878,217.471767 201.916211,217.471767 C203.633545,217.471767 205.027322,216.077989 205.027322,214.360656 L205.027322,201.916211 C205.027322,200.198878 203.633545,198.8051 201.916211,198.8051" id="Fill-6" fill="#000000" mask="url(#mask-6)"></path>
            </g>
        </g>
    </g>
</svg>