<?xml version="1.0" encoding="UTF-8"?>
<svg width="428px" height="415px" viewBox="0 0 428 415" version="1.1" xmlns="http://www.w3.org/2000/svg" xmlns:xlink="http://www.w3.org/1999/xlink">
    <!-- Generator: Sketch 43.2 (39069) - http://www.bohemiancoding.com/sketch -->
    <title>logged-in-asset-1</title>
    <desc>Created with Sketch.</desc>
    <defs>
        <polygon id="path-1" points="196.247567 197.581881 196.247567 0.0493964993 0 0.0493964993 0 197.581881"></polygon>
        <polygon id="path-3" points="57.8224063 198.236607 0 198.236607 0 0.00330394345 57.8224063 0.00330394345 57.8224063 198.236607"></polygon>
        <polygon id="path-5" points="0.818293677 198.236607 50.4109584 198.236607 50.4109584 0.00165197173 0.818293677 0.00165197173 0.818293677 198.236607"></polygon>
    </defs>
    <g id="Page-1" stroke="none" stroke-width="1" fill="none" fill-rule="evenodd">
        <g id="non-logged-in-state-2" transform="translate(-32.000000, -162.000000)">
            <g id="logged-in-asset-1" transform="translate(32.000000, 162.000000)">
                <g id="Page-1" transform="translate(227.896104, 0.000000)">
                    <g id="Group-3" transform="translate(0.000000, 0.800401)">
                        <mask id="mask-2" fill="white">
                            <use xlink:href="#path-1"></use>
                        </mask>
                        <g id="Clip-2"></g>
                        <path d="M49.1996796,183.676766 L13.8164044,148.045425 L49.7148509,147.526762 L49.1996796,183.676766 Z M93.4471726,44.68325 C100.35701,37.7265763 108.051871,31.7578327 116.212839,26.678226 C119.802684,42.411011 129.034881,57.0735386 140.802048,65.1498662 C141.505298,65.6273657 142.306676,65.8578827 143.091699,65.8578827 C144.408248,65.8578827 145.692087,65.2321937 146.47711,64.0631432 C147.752773,62.1860762 147.27031,59.625691 145.405881,58.341382 C134.84078,51.0883294 126.393606,36.8786031 123.719621,22.3395668 C143.598693,11.8098797 165.890074,6.78790228 187.698994,8.60734 C190.479284,42.7320883 177.223843,77.9847233 151.874143,103.506248 C126.638925,128.920747 91.5336791,142.430689 57.6059673,139.590391 C54.8338549,105.45741 68.0974723,70.2047746 93.4471726,44.68325 L93.4471726,44.68325 Z M66.6582635,148.185381 L66.6582635,148.185381 C99.9563215,148.185381 133.13172,134.025052 157.65551,109.326802 C185.57289,81.2284267 199.719658,41.9911408 195.524692,4.37570656 C195.303904,2.46570859 193.807454,0.959115361 191.910315,0.745063864 C167.067609,-2.0376056 141.31722,3.61006082 118.608795,15.9262546 C117.55392,16.0662114 116.662592,16.6178056 116.032938,17.3834514 C105.786753,23.2369365 96.1456891,30.3253342 87.6658055,38.8626958 C60.8605418,65.8414172 46.9345612,103.078145 49.5676591,139.294012 L4.03632647,139.952632 C2.38450729,139.97733 0.920766533,140.989958 0.29929001,142.529482 C-0.322186513,144.060774 0.0376156843,145.806117 1.1987955,146.9834 L50.2627316,196.379899 C51.0477545,197.170243 52.0944518,197.581881 53.1493265,197.581881 C53.6726751,197.581881 54.1878465,197.491321 54.6948405,197.285502 C56.2076452,196.659813 57.2134558,195.177918 57.2379878,193.523135 L57.8921736,147.699649 C60.8114778,147.913701 63.7226047,148.185381 66.6582635,148.185381 L66.6582635,148.185381 Z" id="Fill-1" fill="#000000" mask="url(#mask-2)"></path>
                    </g>
                    <path d="M163.546454,33.7314007 C168.060336,33.7314007 171.723776,30.034896 171.723776,25.4986508 C171.723776,20.9624056 168.060336,17.2659009 163.546454,17.2659009 C159.032571,17.2659009 155.369131,20.9624056 155.369131,25.4986508 C155.369131,30.034896 159.032571,33.7314007 163.546454,33.7314007" id="Fill-4" fill="#000000"></path>
                </g>
                <g id="Page-1">
                    <g id="Group-3">
                        <mask id="mask-4" fill="white">
                            <use xlink:href="#path-3"></use>
                        </mask>
                        <g id="Clip-2"></g>
                        <path d="M33.7762021,73.8464401 L40.2771855,177.87936 C40.4754366,181.051145 39.3850556,184.074254 37.2125542,186.387014 C32.8592908,191.020795 24.9705499,191.020795 20.609026,186.387014 C18.4447851,184.074254 17.3544041,181.051145 17.5443947,177.87936 L24.0453781,73.8464401 C25.6396473,74.1190154 27.2421768,74.3420316 28.9107901,74.3420316 C30.5794034,74.3420316 32.1901934,74.1190154 33.7762021,73.8464401 M15.9418652,71.1206868 L9.3004539,177.358988 C8.96177496,182.760936 10.8864626,188.105065 14.5954099,192.045017 C18.2960968,195.97671 23.5084481,198.239911 28.9107901,198.239911 C34.3131321,198.239911 39.5254835,195.97671 43.2344308,192.045017 C46.9351177,188.105065 48.8598053,182.760936 48.5211263,177.358988 L41.8797151,71.1206868 C51.2966415,66.3547483 57.8224063,56.6824539 57.8224063,45.4325264 L57.8224063,4.13323326 C57.8224063,1.84525242 55.9803233,0.00330394345 53.6921754,0.00330394345 C51.412288,0.00330394345 49.5619445,1.84525242 49.5619445,4.13323326 L49.5619445,45.4325264 C49.5619445,56.8063517 40.3019669,66.082173 28.9107901,66.082173 C17.5196133,66.082173 8.25963571,56.8063517 8.25963571,45.4325264 L8.25963571,4.13323326 C8.25963571,1.84525242 6.40929228,0.00330394345 4.12940483,0.00330394345 C1.84951739,0.00330394345 -0.000826046176,1.84525242 -0.000826046176,4.13323326 L-0.000826046176,45.4325264 C-0.000826046176,56.6824539 6.52493874,66.3547483 15.9418652,71.1206868" id="Fill-1" fill="#000000" mask="url(#mask-4)"></path>
                    </g>
                    <path d="M16.5209235,37.1693638 C16.5209235,39.4490848 18.371267,41.2992932 20.6511544,41.2992932 C22.9310418,41.2992932 24.7813853,39.4490848 24.7813853,37.1693638 L24.7813853,4.12992932 C24.7813853,1.85020833 22.9310418,0 20.6511544,0 C18.371267,0 16.5209235,1.85020833 16.5209235,4.12992932 L16.5209235,37.1693638 Z" id="Fill-4" fill="#000000"></path>
                    <path d="M33.041847,4.12992932 L33.041847,37.1693638 C33.041847,39.4490848 34.8921905,41.2992932 37.1720779,41.2992932 C39.4519654,41.2992932 41.3023088,39.4490848 41.3023088,37.1693638 L41.3023088,4.12992932 C41.3023088,1.85020833 39.4519654,0 37.1720779,0 C34.8921905,0 33.041847,1.85020833 33.041847,4.12992932" id="Fill-6" fill="#000000"></path>
                    <g id="Group-10" transform="translate(147.839105, 0.000000)">
                        <mask id="mask-6" fill="white">
                            <use xlink:href="#path-5"></use>
                        </mask>
                        <g id="Clip-9"></g>
                        <path d="M42.1275598,177.852928 C42.3175504,180.842997 41.2602113,183.742207 39.1372727,186.005408 C36.7747806,188.524665 33.346689,189.9784 29.7286067,189.9784 C22.8972048,189.9784 17.3379141,184.865548 17.3379141,178.579796 L17.3296536,177.861188 L22.0298563,107.379814 L37.4356175,107.379814 L42.1275598,177.852928 Z M14.5789198,37.394032 C15.8179891,22.4602076 27.5726262,10.4668929 42.1192994,8.53408594 L42.1192994,99.1199555 L9.43265216,99.1199555 L14.5789198,37.394032 Z M50.3797611,103.249885 L50.3797611,4.13158129 C50.3797611,1.84360045 48.5294177,0.00165197173 46.2495302,0.00165197173 C25.5901154,0.00165197173 8.06141551,16.124896 6.35149993,36.7084637 L0.833511472,102.911231 C0.734385931,104.051091 1.12262763,105.190952 1.9073715,106.049977 C2.69211537,106.892483 3.79075678,107.379814 4.94722143,107.379814 L13.7528737,107.379814 L9.07745231,177.588613 L9.07745231,178.579796 C9.07745231,189.41673 18.3374299,198.238259 29.7286067,198.238259 C35.6183159,198.238259 41.2436904,195.8429 45.1591493,191.655152 C48.8598361,187.706939 50.7101796,182.618866 50.3715006,177.316037 L45.7126002,107.379814 L46.2495302,107.379814 C48.5294177,107.379814 50.3797611,105.529606 50.3797611,103.249885 L50.3797611,103.249885 Z" id="Fill-8" fill="#000000" mask="url(#mask-6)"></path>
                    </g>
                    <path d="M103.255772,90.8584449 C87.3130808,90.8584449 74.3441558,76.8662444 74.3441558,59.6609589 C74.3441558,40.7871819 88.6264942,8.25985863 103.255772,8.25985863 C117.88505,8.25985863 132.167388,40.7871819 132.167388,59.6609589 C132.167388,76.8662444 119.198463,90.8584449 103.255772,90.8584449 L103.255772,90.8584449 Z M114.66347,177.809977 C114.836939,181.039581 113.730038,184.087469 111.524494,186.40849 C109.351993,188.71299 106.419529,189.976749 103.255772,189.976749 C96.9695606,189.976749 91.8563348,184.830857 91.8563348,178.495545 L91.8480743,177.843016 L96.8291328,98.4244754 C98.92729,98.8209487 101.050229,99.1183036 103.255772,99.1183036 C105.461315,99.1183036 107.584254,98.8209487 109.682411,98.4244754 L114.66347,177.809977 Z M140.42785,59.6609589 C140.42785,38.7056975 125.104693,0 103.255772,0 C81.4068506,0 66.0836941,38.7056975 66.0836941,59.6609589 C66.0836941,75.9328804 75.4180159,89.9333408 88.7008384,95.9547777 L83.595873,177.586961 L83.595873,178.495545 C83.595873,189.382039 92.4180462,198.236607 103.255772,198.236607 C108.707677,198.236607 113.77134,196.047745 117.52985,192.091272 C121.304881,188.093501 123.213048,182.87327 122.907411,177.330905 L117.810706,95.9547777 C131.093528,89.9333408 140.42785,75.9246205 140.42785,59.6609589 L140.42785,59.6609589 Z" id="Fill-11" fill="#000000"></path>
                    <path d="M119.776696,55.5285516 C117.496808,55.5285516 115.646465,57.3705001 115.646465,59.6584809 C115.646465,67.7448825 110.087174,74.3362497 103.255772,74.3362497 C100.975885,74.3362497 99.1255411,76.1864581 99.1255411,78.466179 C99.1255411,80.7541599 100.975885,82.5961084 103.255772,82.5961084 C114.646949,82.5961084 123.906926,72.3043245 123.906926,59.6584809 C123.906926,57.3705001 122.056583,55.5285516 119.776696,55.5285516" id="Fill-13" fill="#000000"></path>
                </g>
                <g id="Page-1" transform="translate(227.896104, 214.910714)" fill="#000000">
                    <path d="M191.766234,25.0111607 L179.25974,25.0111607 L20.8441558,25.0111607 L8.33766234,25.0111607 L8.33766234,8.33705357 L191.766234,8.33705357 L191.766234,25.0111607 Z M175.090909,75.0334821 L154.246753,75.0334821 C151.945558,75.0334821 150.077922,76.9009821 150.077922,79.2020089 C150.077922,81.5030357 151.945558,83.3705357 154.246753,83.3705357 L175.090909,83.3705357 L175.090909,100.044643 L154.246753,100.044643 C151.945558,100.044643 150.077922,101.912143 150.077922,104.21317 C150.077922,106.514196 151.945558,108.381696 154.246753,108.381696 L175.090909,108.381696 L175.090909,125.055804 L154.246753,125.055804 C151.945558,125.055804 150.077922,126.923304 150.077922,129.22433 C150.077922,131.525357 151.945558,133.392857 154.246753,133.392857 L175.090909,133.392857 L175.090909,150.066964 L154.246753,150.066964 C151.945558,150.066964 150.077922,151.934464 150.077922,154.235491 C150.077922,156.536518 151.945558,158.404018 154.246753,158.404018 L175.090909,158.404018 L175.090909,175.078125 L25.012987,175.078125 L25.012987,33.3482143 L175.090909,33.3482143 L175.090909,75.0334821 Z M141.74026,191.752232 L158.415584,191.752232 L158.415584,183.415179 L141.74026,183.415179 L141.74026,191.752232 Z M41.6883117,191.752232 L58.3636364,191.752232 L58.3636364,183.415179 L41.6883117,183.415179 L41.6883117,191.752232 Z M195.935065,0 L4.16883117,0 C1.86763636,0 0,1.8675 0,4.16852679 L0,29.1796875 C0,31.4807143 1.86763636,33.3482143 4.16883117,33.3482143 L16.6753247,33.3482143 L16.6753247,179.246652 C16.6753247,181.547679 18.542961,183.415179 20.8441558,183.415179 L33.3506494,183.415179 L33.3506494,195.920759 C33.3506494,198.221786 35.2182857,200.089286 37.5194805,200.089286 L62.5324675,200.089286 C64.8336623,200.089286 66.7012987,198.221786 66.7012987,195.920759 L66.7012987,183.415179 L133.402597,183.415179 L133.402597,195.920759 C133.402597,198.221786 135.270234,200.089286 137.571429,200.089286 L162.584416,200.089286 C164.88561,200.089286 166.753247,198.221786 166.753247,195.920759 L166.753247,183.415179 L179.25974,183.415179 C181.560935,183.415179 183.428571,181.547679 183.428571,179.246652 L183.428571,33.3482143 L195.935065,33.3482143 C198.23626,33.3482143 200.103896,31.4807143 200.103896,29.1796875 L200.103896,4.16852679 C200.103896,1.8675 198.23626,0 195.935065,0 L195.935065,0 Z" id="Fill-1"></path>
                    <path d="M100.051948,50.0223214 C109.24839,50.0223214 116.727273,57.5006585 116.727273,66.6964286 C116.727273,75.8921987 109.24839,83.3705357 100.051948,83.3705357 C90.8555065,83.3705357 83.3766234,75.8921987 83.3766234,66.6964286 C83.3766234,57.5006585 90.8555065,50.0223214 100.051948,50.0223214 M100.051948,91.7075893 C113.842442,91.7075893 125.064935,80.4859152 125.064935,66.6964286 C125.064935,52.906942 113.842442,41.6852679 100.051948,41.6852679 C86.2614545,41.6852679 75.038961,52.906942 75.038961,66.6964286 C75.038961,80.4859152 86.2614545,91.7075893 100.051948,91.7075893" id="Fill-3"></path>
                </g>
                <g id="Page-1" transform="translate(1.852814, 214.910714)" fill="#000000">
                    <path d="M100.051948,8.33705357 C150.61987,8.33705357 191.766234,49.4804129 191.766234,100.044643 C191.766234,150.608873 150.61987,191.752232 100.051948,191.752232 C49.484026,191.752232 8.33766234,150.608873 8.33766234,100.044643 C8.33766234,49.4804129 49.484026,8.33705357 100.051948,8.33705357 M100.051948,200.089286 C155.213922,200.089286 200.103896,155.210926 200.103896,100.044643 C200.103896,44.8783594 155.213922,0 100.051948,0 C44.889974,0 0,44.8783594 0,100.044643 C0,155.210926 44.889974,200.089286 100.051948,200.089286" id="Fill-1"></path>
                    <path d="M28.1312727,107.257862 C29.7321039,105.323665 32.0916623,104.214837 34.5846234,104.214837 L92.8315325,104.214837 L89.7966234,109.450507 L63.7414286,154.578978 C62.2406494,157.163464 59.4558701,158.764179 56.4543117,158.764179 C55.0619221,158.764179 53.0025195,158.422359 51.0931948,156.771623 C38.3032208,145.741701 29.5153247,130.618286 26.3553506,114.202627 C25.8801039,111.734859 26.5304416,109.200395 28.1312727,107.257862 M28.1312727,92.8347589 C26.5304416,90.8838884 25.8801039,88.3577612 26.3553506,85.8899933 C29.5153247,69.4659978 38.3032208,54.3509196 51.0931948,43.3126607 C53.0025195,41.6702612 55.0619221,41.3201049 56.4543117,41.3201049 C59.4558701,41.3201049 62.2406494,42.9291562 63.7414286,45.5053058 L89.7966234,90.6337768 L92.8315325,95.8777835 L34.5846234,95.8777835 C32.0916623,95.8777835 29.7321039,94.7606183 28.1312727,92.8347589 M70.3531948,34.17525 C71.2036364,31.8575491 73.0212468,30.0650826 75.3224416,29.2480513 C83.2849091,26.4384643 91.5975584,25.0128281 100.051948,25.0128281 C108.506338,25.0128281 116.818987,26.4384643 124.781455,29.2563884 C127.082649,30.0650826 128.90026,31.8575491 129.750701,34.17525 C130.626156,36.5429732 130.409377,39.1357969 129.15039,41.3117679 L129.133714,41.336779 C129.125377,41.3451161 129.125377,41.3534531 129.117039,41.3617902 L100.051948,91.7092567 L96.1165714,84.8895469 L70.9868571,41.3617902 C70.9785195,41.3534531 70.9701818,41.3451161 70.9701818,41.336779 L70.9535065,41.3117679 C69.6945195,39.1357969 69.4777403,36.5429732 70.3531948,34.17525 M149.010701,43.3126607 C161.800675,54.3509196 170.588571,69.4659978 173.748545,85.8899933 C174.223792,88.3577612 173.573455,90.8838884 171.972623,92.8347589 C170.371792,94.7606183 168.012234,95.8777835 165.519273,95.8777835 L107.272364,95.8777835 L110.298935,90.6337768 L136.35413,45.5053058 C137.863247,42.9291562 140.648026,41.3201049 143.649584,41.3201049 C145.041974,41.3201049 147.101377,41.6702612 149.010701,43.3126607 M171.972623,107.257862 C173.573455,109.200395 174.223792,111.734859 173.748545,114.202627 C170.588571,130.618286 161.800675,145.741701 149.010701,156.771623 C147.101377,158.422359 145.041974,158.764179 143.649584,158.764179 C140.648026,158.764179 137.863247,157.163464 136.35413,154.578978 L110.298935,109.450507 L107.272364,104.214837 L165.519273,104.214837 C168.012234,104.214837 170.371792,105.323665 171.972623,107.257862 M129.750701,165.917371 C128.90026,168.226734 127.082649,170.027538 124.781455,170.836232 C108.856519,176.463743 91.2473766,176.47208 75.3224416,170.836232 C73.0212468,170.027538 71.2036364,168.226734 70.3531948,165.917371 C69.4777403,163.549647 69.6945195,160.948487 70.9535065,158.780853 L70.9701818,158.747504 C70.9701818,158.747504 70.9785195,158.739167 70.9868571,158.73083 L100.051948,108.383364 L129.117039,158.73083 C129.125377,158.739167 129.125377,158.747504 129.133714,158.747504 L129.15039,158.780853 C130.409377,160.948487 130.626156,163.549647 129.750701,165.917371 M45.657039,163.082772 C48.6502597,165.675596 52.4855844,167.101232 56.4543117,167.101232 C58.3302857,167.101232 60.1312208,166.684379 61.8571169,166.092449 C62.0238701,167.009525 62.2072987,167.918263 62.5324675,168.801991 C64.250026,173.44573 67.9019221,177.055674 72.546,178.698074 C81.4089351,181.824469 90.6554026,183.416846 100.051948,183.416846 C109.448494,183.416846 118.694961,181.824469 127.557896,178.698074 C132.201974,177.055674 135.85387,173.44573 137.571429,168.801991 C137.896597,167.918263 138.080026,167.009525 138.246779,166.092449 C139.972675,166.684379 141.77361,167.101232 143.649584,167.101232 C147.609974,167.101232 151.453636,165.675596 154.446857,163.082772 C168.662571,150.835641 178.417636,134.028141 181.93613,115.769993 C182.886623,110.851132 181.594286,105.815551 178.392623,101.947158 C177.808987,101.238509 177.116961,100.646578 176.433273,100.04631 C177.116961,99.4460424 177.808987,98.8541116 178.392623,98.137125 C181.594286,94.2687321 182.886623,89.2331518 181.93613,84.3226272 C178.417636,66.0561429 168.662571,49.2569799 154.446857,37.0015112 C151.453636,34.4170246 147.609974,32.9830513 143.649584,32.9830513 C141.77361,32.9830513 139.972675,33.399904 138.246779,33.9918348 C138.080026,33.083096 137.896597,32.1743571 137.571429,31.2906295 C135.85387,26.6385536 132.201974,23.0286094 127.557896,21.3945469 C109.848701,15.1334196 90.2551948,15.1334196 72.546,21.3862098 C67.9019221,23.0286094 64.250026,26.6385536 62.5324675,31.2906295 C62.2072987,32.1743571 62.0238701,33.083096 61.8571169,33.9918348 C60.1312208,33.399904 58.3302857,32.9830513 56.4543117,32.9830513 C52.4855844,32.9830513 48.6502597,34.4170246 45.657039,37.0015112 C31.4413247,49.2569799 21.6862597,66.0561429 18.1677662,84.3226272 C17.2172727,89.2331518 18.5096104,94.2687321 21.7029351,98.137125 C22.2949091,98.8541116 22.9869351,99.4460424 23.6706234,100.04631 C22.9869351,100.646578 22.2949091,101.238509 21.7029351,101.947158 C18.5096104,105.815551 17.2172727,110.851132 18.1677662,115.769993 C21.6862597,134.028141 31.4413247,150.835641 45.657039,163.082772" id="Fill-3"></path>
                    <path d="M100.051948,75.0334821 C102.353143,75.0334821 104.220779,73.1659821 104.220779,70.8649554 L104.220779,54.1908482 C104.220779,51.8898214 102.353143,50.0223214 100.051948,50.0223214 C97.7507532,50.0223214 95.8831169,51.8898214 95.8831169,54.1908482 L95.8831169,70.8649554 C95.8831169,73.1659821 97.7507532,75.0334821 100.051948,75.0334821" id="Fill-5"></path>
                    <path d="M100.051948,125.055804 C97.7507532,125.055804 95.8831169,126.923304 95.8831169,129.22433 L95.8831169,145.898437 C95.8831169,148.199464 97.7507532,150.066964 100.051948,150.066964 C102.353143,150.066964 104.220779,148.199464 104.220779,145.898437 L104.220779,129.22433 C104.220779,126.923304 102.353143,125.055804 100.051948,125.055804" id="Fill-7"></path>
                    <path d="M76.8624078,81.8440212 L62.4215766,73.5069676 C60.4288753,72.3481172 57.8775506,73.0317556 56.7269532,75.0326484 C55.5680182,77.0252042 56.2600442,79.5763426 58.2527455,80.726856 L72.6935766,89.0639096 C73.3522519,89.4474141 74.0692909,89.6224922 74.7779922,89.6224922 C76.2120701,89.6224922 77.6211351,88.8804944 78.3965377,87.5382288 C79.5387974,85.545673 78.8551091,82.9945346 76.8624078,81.8440212" id="Fill-9"></path>
                    <path d="M123.240655,118.245265 L137.681486,126.582318 C138.340161,126.957485 139.048862,127.140901 139.757564,127.140901 C141.199979,127.140901 142.600706,126.398903 143.376109,125.056637 C144.535044,123.064081 143.843018,120.512943 141.850317,119.36243 L127.409486,111.025376 C125.408447,109.866526 122.86546,110.550164 121.706525,112.551057 C120.564265,114.543613 121.247953,117.094751 123.240655,118.245265" id="Fill-11"></path>
                    <path d="M123.240655,81.8440212 C121.247953,82.9945346 120.564265,85.545673 121.706525,87.5382288 C122.481927,88.8804944 123.890992,89.6224922 125.32507,89.6224922 C126.033771,89.6224922 126.75081,89.4474141 127.409486,89.0639096 L141.850317,80.726856 C143.843018,79.5763426 144.535044,77.0252042 143.376109,75.0326484 C142.208836,73.0317556 139.665849,72.3481172 137.681486,73.5069676 L123.240655,81.8440212 Z" id="Fill-13"></path>
                    <path d="M60.3421636,127.140067 C61.0508649,127.140067 61.7679039,126.964989 62.4182416,126.581484 L76.8590727,118.244431 C78.8601117,117.093917 79.5438,114.542779 78.3932026,112.550223 C77.2342675,110.54933 74.6746052,109.865692 72.6902416,111.024542 L58.2494104,119.361596 C56.2650468,120.512109 55.5730208,123.063248 56.7236182,125.055804 C57.4990208,126.398069 58.8997481,127.140067 60.3421636,127.140067" id="Fill-15"></path>
                </g>
            </g>
        </g>
    </g>
</svg>