<?xml version="1.0" encoding="UTF-8"?>
<svg width="352px" height="80px" viewBox="0 0 352 80" version="1.1" xmlns="http://www.w3.org/2000/svg" xmlns:xlink="http://www.w3.org/1999/xlink">
    <!-- Generator: Sketch 43.2 (39069) - http://www.bohemiancoding.com/sketch -->
    <title>logo</title>
    <desc>Created with Sketch.</desc>
    <defs>
        <polygon id="path-1" points="16.0503442 42.8722033 0 42.8722033 0 0.995587832 32.1006884 0.995587832 32.1006884 42.8722033 16.0503442 42.8722033"></polygon>
    </defs>
    <g id="Page-1" stroke="none" stroke-width="1" fill="none" fill-rule="evenodd">
        <g id="non-logged-in-state-1" transform="translate(-28.000000, -300.000000)">
            <g id="Group" transform="translate(23.000000, 300.000000)">
                <g id="logo" transform="translate(5.000000, 0.000000)">
                    <g id="Page-1" transform="translate(98.537124, 0.000000)">
                        <path d="M10.9994891,5.3964195 C12.219983,5.69414313 13.1954075,6.25624535 13.9354685,7.08510795 C14.6706765,7.91873412 15.0370673,8.98101205 15.0370673,10.2814689 C15.0370673,14.0042052 11.8948415,15.7976924 5.61038971,15.666694 L5.61038971,4.95102494 C7.97615823,4.95102494 9.7741423,5.09869586 10.9994891,5.3964195 L10.9994891,5.3964195 Z M1.34957995,31.9867127 L5.61038971,31.9867127 L5.61038971,19.3394127 L6.56640283,19.3394127 L15.2141967,31.9867127 L20.1010252,31.9867127 L11.0455912,18.8273281 C13.9403213,18.184245 16.0755791,17.0719495 17.4368059,15.4952052 C18.8028855,13.9184608 19.489565,12.0987739 19.489565,10.04329 C19.489565,7.46857599 18.4316419,5.35592908 16.3206484,3.70773105 C14.2072285,2.05715122 11.4653635,1.23067041 8.11203826,1.23067041 L1.34957995,1.23067041 L1.34957995,31.9867127 Z" id="Fill-1" fill="#020302"></path>
                        <polygon id="Fill-3" fill="#020302" points="24.8708998 31.9855218 42.1519289 31.9855218 42.1519289 27.8364452 29.0807545 27.8364452 29.0807545 17.2636835 42.1519289 17.2636835 42.1519289 13.1098434 29.0807545 13.1098434 29.0807545 5.43095544 42.1519289 5.43095544 42.1519289 1.23186131 24.8708998 1.23186131"></polygon>
                        <path d="M61.1205396,1.35142712 C59.3759369,0.62974503 57.6531722,0.265331302 55.9595245,0.265331302 C53.3972153,0.265331302 51.2182818,1.04417633 49.4227242,2.59472101 C47.6271665,4.14050212 46.7293877,6.02449728 46.7293877,8.22765217 C46.7293877,9.14225917 46.8943849,10.002085 47.2098207,10.8095115 C47.5301093,11.6145562 48.0299538,12.4219827 48.7214861,13.2341728 C49.410592,14.0463629 50.2258722,14.7466089 51.1673268,15.3301472 C52.1063549,15.9184491 53.4481703,16.5662957 55.1976258,17.2713053 C56.9446548,17.9763148 58.2136773,18.6027254 59.014399,19.1481551 C59.8126942,19.6959665 60.4848151,20.3890672 61.0234824,21.2274569 C61.5645761,22.0706102 61.8314833,22.9113818 61.8314833,23.745008 C61.8314833,25.1431181 61.3170803,26.2959041 60.2907008,27.2128928 C59.2618948,28.1298816 57.9734608,28.5800398 56.425399,28.5800398 C53.2249388,28.5800398 50.851891,26.8556245 49.3014027,23.3925032 L45.0405929,24.5762523 C46.1203539,27.391527 47.6562837,29.5017921 49.6556614,30.9118113 C51.6550391,32.3194486 53.9577204,33.0244582 56.5685583,33.0244582 C59.2473362,33.0244582 61.5257532,32.1241419 63.4086623,30.3235094 C65.2939979,28.5252586 66.2354524,26.3459216 66.2354524,23.7878802 C66.2354524,22.694639 66.0631759,21.6561789 65.7161966,20.6772636 C65.3619379,19.6935848 64.8305499,18.7599234 64.1123268,17.8786615 C63.3941038,16.9926359 62.4769135,16.1852095 61.3656089,15.4540002 C60.2494515,14.722791 58.6916839,13.932037 56.6850269,13.0841201 C54.6832228,12.2338214 53.2637617,11.4502128 52.4314964,10.7380578 C51.5992312,10.0235211 51.1843118,9.19942211 51.1843118,8.26814258 C51.1843118,7.19395571 51.6647448,6.31745733 52.615905,5.63626566 C53.5694917,4.95269219 54.8069707,4.60971457 56.3380475,4.60971457 C57.7380972,4.60971457 58.8081525,4.83836632 59.5506398,5.29805161 C60.2907008,5.7577369 61.1181131,6.4556011 62.0255977,7.38926241 L65.4784065,4.65735035 C64.3161469,3.17825934 62.8675686,2.075491 61.1205396,1.35142712" id="Fill-5" fill="#020302"></path>
                        <polygon id="Fill-7" fill="#020302" points="69.0488971 5.43119362 76.4640649 5.43119362 76.4640649 31.98576 80.6739197 31.98576 80.6739197 5.43119362 88.1133517 5.43119362 88.1133517 1.23209949 69.0488971 1.23209949"></polygon>
                        <path d="M107.748745,20.6174807 L97.7203131,20.6174807 L102.709052,9.64696027 L107.748745,20.6174807 Z M88.121359,31.98576 L92.5495923,31.98576 L96.1285755,24.1187107 L109.359894,24.1187107 L112.972847,31.98576 L117.44233,31.98576 L102.721184,0.0507321072 L88.121359,31.98576 Z" id="Fill-9" fill="#020302"></path>
                        <path d="M118.750418,19.4811292 C118.750418,23.9422201 119.864149,27.3100698 122.091611,29.5989691 C124.319073,31.8854866 127.28417,33.0263636 130.986901,33.0263636 C134.611986,33.0263636 137.509143,31.9021592 139.688076,29.6466049 C141.867009,27.3910507 142.963755,24.3852329 142.963755,20.6172426 L142.963755,1.28187888 L138.700519,1.28187888 L138.700519,20.905439 C138.700519,23.4682441 138.011413,25.4498926 136.630775,26.8575299 C135.24771,28.2651673 133.323552,28.9701768 130.841315,28.9701768 C128.342093,28.9701768 126.413082,28.2056225 125.051855,26.6765139 C123.690628,25.1521689 123.008801,22.9823591 123.008801,20.1837569 L123.008801,1.28187888 L118.750418,1.28187888 L118.750418,19.4811292 Z" id="Fill-11" fill="#020302"></path>
                        <path d="M159.215493,5.3964195 C160.438414,5.69414313 161.418691,6.25624535 162.156326,7.08510795 C162.891534,7.91873412 163.250645,8.98101205 163.250645,10.2814689 C163.250645,14.0042052 160.113272,15.7976924 153.82882,15.666694 L153.82882,4.95102494 C156.197015,4.95102494 157.990147,5.09869586 159.215493,5.3964195 L159.215493,5.3964195 Z M149.57529,31.9867127 L153.82882,31.9867127 L153.82882,19.3394127 L154.78726,19.3394127 L163.435054,31.9867127 L168.321882,31.9867127 L159.264022,18.8273281 C162.158752,18.184245 164.289157,17.0719495 165.657663,15.4952052 C167.026169,13.9184608 167.715275,12.0987739 167.715275,10.04329 C167.715275,7.46857599 166.652499,5.35592908 164.541506,3.70773105 C162.425659,2.05715122 159.686221,1.23067041 156.328042,1.23067041 L149.57529,1.23067041 L149.57529,31.9867127 Z" id="Fill-13" fill="#020302"></path>
                        <path d="M190.100298,20.6174807 L180.071866,20.6174807 L185.060604,9.64696027 L190.100298,20.6174807 Z M170.470485,31.98576 L174.903572,31.98576 L178.482555,24.1187107 L191.711447,24.1187107 L195.331679,31.98576 L199.796309,31.98576 L185.072737,0.0507321072 L170.470485,31.98576 Z" id="Fill-15" fill="#020302"></path>
                        <polygon id="Fill-17" fill="#020302" points="203.20156 31.9855218 207.46237 31.9855218 207.46237 10.1397524 230.518301 33.4145952 230.518301 1.23186131 226.257491 1.23186131 226.257491 23.3753543 203.20156 0.000476357814"></polygon>
                        <polygon id="Fill-19" fill="#020302" points="233.747635 5.43119362 241.167656 5.43119362 241.167656 31.98576 245.377511 31.98576 245.377511 5.43119362 252.81209 5.43119362 252.81209 1.23209949 233.747635 1.23209949"></polygon>
                        <g id="Group-23" transform="translate(0.000000, 36.672406)">
                            <mask id="mask-2" fill="white">
                                <use xlink:href="#path-1"></use>
                            </mask>
                            <g id="Clip-22"></g>
                            <path d="M20.3591973,0.995587832 C14.6959114,0.995587832 9.88672862,3.03916285 5.93407537,7.1263129 C1.9789957,11.2134629 -0.0009705717,16.2080746 -0.0009705717,22.1053844 C-0.0009705717,27.8978954 1.94017283,32.8067627 5.8200332,36.8367498 C9.70231999,40.8595915 14.4217249,42.8722033 19.9855272,42.8722033 C23.2175309,42.8722033 27.2551092,42.0743039 32.1006884,40.4785053 L32.1006884,30.6107531 C27.7792179,33.0711412 24.0595019,34.3001444 20.9609517,34.3001444 C17.4135121,34.3001444 14.5794428,33.209285 12.46117,31.0275662 C10.3380445,28.8458474 9.28254773,25.9305376 9.28254773,22.2935457 C9.28254773,18.4421928 10.2895159,15.379212 12.3058786,13.1022217 C14.3198149,10.8276131 17.0034456,9.68911794 20.3591973,9.68911794 C23.7198018,9.68911794 27.6263529,11.0086291 32.1006884,13.6595603 L32.1006884,3.7274999 C27.9223772,1.91019483 24.0109733,0.995587832 20.3591973,0.995587832" id="Fill-21" fill="#020302" mask="url(#mask-2)"></path>
                        </g>
                        <polygon id="Fill-24" fill="#020302" points="39.2802499 78.9863182 48.1852452 78.9863182 48.1852452 62.7806254 62.81904 62.7806254 62.81904 78.9863182 71.7240354 78.9863182 71.7240354 38.2291437 62.81904 38.2291437 62.81904 53.932279 48.1852452 53.932279 48.1852452 38.2291437 39.2802499 38.2291437"></polygon>
                        <polygon id="Fill-26" fill="#020302" points="80.4108947 78.9863182 103.663366 78.9863182 103.663366 70.9144351 89.3134636 70.9144351 89.3134636 62.4662292 103.663366 62.4662292 103.663366 54.5205809 89.3134636 54.5205809 89.3134636 46.298645 103.663366 46.298645 103.663366 38.2291437 80.4108947 38.2291437"></polygon>
                        <polygon id="Fill-28" fill="#020302" points="111.490056 78.9863182 134.747381 78.9863182 134.747381 70.9144351 120.395052 70.9144351 120.395052 62.4662292 134.747381 62.4662292 134.747381 54.5205809 120.395052 54.5205809 120.395052 46.298645 134.747381 46.298645 134.747381 38.2291437 111.490056 38.2291437"></polygon>
                        <polygon id="Fill-30" fill="#020302" points="139.676186 46.8902814 149.088306 46.8902814 149.088306 78.987271 157.993301 78.987271 157.993301 46.8902814 167.466081 46.8902814 167.466081 38.2277146 139.676186 38.2277146"></polygon>
                        <path d="M192.10744,63.59091 L182.292534,63.59091 L187.152672,51.5747842 L192.10744,63.59091 Z M167.149189,78.9867946 L176.066317,78.9867946 L179.308026,70.9744562 L195.162315,70.9744562 L198.469538,78.9867946 L207.435194,78.9867946 L190.598201,38.22962 L183.699863,38.22962 L167.149189,78.9867946 Z" id="Fill-32" fill="#020302"></path>
                        <polygon id="Fill-34" fill="#020302" points="213.056502 78.9863182 221.961498 78.9863182 221.961498 62.7806254 236.600145 62.7806254 236.600145 78.9863182 245.507567 78.9863182 245.507567 38.2291437 236.600145 38.2291437 236.600145 53.932279 221.961498 53.932279 221.961498 38.2291437 213.056502 38.2291437"></polygon>
                    </g>
                    <g id="Page-1" fill="#020302">
                        <path d="M56.2378271,60.4122752 C54.1356233,60.4122752 52.4259685,58.7532289 52.4259685,56.7057882 C52.4259685,54.6616958 54.1356233,52.9993012 56.2378271,52.9993012 C58.3417527,52.9993012 60.0462423,54.6616958 60.0462423,56.7057882 C60.0462423,58.7532289 58.3417527,60.4122752 56.2378271,60.4122752 L56.2378271,60.4122752 Z M56.2378271,49.0299784 C51.8801875,49.0299784 48.3455237,52.4669331 48.3455237,56.7057882 C48.3455237,60.9412951 51.8801875,64.3815981 56.2378271,64.3815981 C60.5971884,64.3815981 64.1301305,60.9412951 64.1301305,56.7057882 C64.1301305,52.4669331 60.5971884,49.0299784 56.2378271,49.0299784 L56.2378271,49.0299784 Z M82.7727705,78.3537483 L80.3623812,78.054082 L24.3896969,58.6360409 L24.3896969,58.5171789 L19.28828,56.687373 L46.1124701,56.687373 C46.1245221,51.2565492 50.6526106,46.8586533 56.2378271,46.8586533 C61.8109916,46.8586533 66.3321934,51.2414821 66.3597407,56.658913 C67.9437109,56.6505425 69.1006977,56.6388237 69.5156291,56.6187343 C71.0651651,56.5484215 77.8727933,48.9245092 71.7710648,39.072352 C67.6010912,31.9322584 62.842294,25.5756499 62.842294,25.5756499 C61.5372403,23.7274287 60.1822571,23.3239674 59.7845429,23.3239674 L46.0160545,23.3239674 C44.5043961,23.3239674 42.9841291,24.057229 42.9841291,25.5287747 L42.9152608,46.5388976 L38.7659477,16.3412405 C38.5817251,13.794914 36.9185564,13.1654474 36.0559814,13.1654474 L0,13.1654474 C0,13.1654474 79.723628,0.343412991 82.0995832,0.0403984692 C85.047145,-0.334602928 85.5963695,1.98069588 85.5963695,3.68829153 L85.5963695,74.730967 C85.5963695,76.7315325 84.4652082,78.3537483 82.7727705,78.3537483 L82.7727705,78.3537483 Z M58.4140644,26.9718604 C58.815222,26.9718604 59.1543982,27.1945175 59.5056264,27.6749881 L66.7626201,38.3106304 C66.7626201,38.7023729 66.4389392,39.0171062 66.0377816,39.0171062 L47.7394829,34.4283614 C47.3073345,34.2726689 47.0163661,33.9579356 47.0163661,33.3971076 L47.0163661,27.6749881 C47.0163661,27.2882679 47.3366036,26.9718604 47.7394829,26.9718604 L58.4140644,26.9718604 Z" id="Fill-1"></path>
                    </g>
                </g>
            </g>
        </g>
    </g>
</svg>