<?xml version="1.0" encoding="utf-8"?>
<!-- Generator: Adobe Illustrator 16.0.0, SVG Export Plug-In . SVG Version: 6.00 Build 0)  -->
<!DOCTYPE svg PUBLIC "-//W3C//DTD SVG 1.1//EN" "http://www.w3.org/Graphics/SVG/1.1/DTD/svg11.dtd">
<svg version="1.1" id="Layer_1" xmlns="http://www.w3.org/2000/svg" xmlns:xlink="http://www.w3.org/1999/xlink" x="0px" y="0px"
	 width="314.64px" height="74.88px" viewBox="0 0 314.64 74.88" enable-background="new 0 0 314.64 74.88" xml:space="preserve">
<g>
	<g>
		<g>
			<path fill-rule="evenodd" clip-rule="evenodd" d="M94.448,18.706h0.848l7.678,11.444h4.333l-8.041-11.905
				c2.572-0.582,4.471-1.587,5.678-3.012c1.214-1.423,1.826-3.073,1.826-4.927c0-2.331-0.943-4.235-2.815-5.731
				c-1.875-1.495-4.31-2.242-7.29-2.242h-5.997v27.818h3.781V18.706z M94.448,5.695c2.102,0,3.69,0.138,4.779,0.403
				c1.084,0.271,1.95,0.781,2.61,1.528c0.651,0.753,0.976,1.716,0.976,2.893c0,3.366-2.792,4.988-8.365,4.872V5.695z
				 M126.883,26.393h-11.604v-9.561h11.604v-3.754h-11.604V6.13h11.604V2.332h-15.341v27.818h15.341V26.393z M139.555,27.068
				c-2.844,0-4.949-1.562-6.327-4.694l-3.776,1.072c0.954,2.548,2.319,4.456,4.095,5.727c1.773,1.277,3.816,1.913,6.136,1.913
				c2.375,0,4.396-0.816,6.075-2.442c1.668-1.625,2.505-3.602,2.505-5.91c0-0.991-0.158-1.927-0.464-2.814
				c-0.314-0.888-0.779-1.732-1.421-2.529c-0.641-0.806-1.456-1.534-2.439-2.195c-0.993-0.658-2.373-1.376-4.155-2.144
				c-1.775-0.767-3.033-1.475-3.776-2.122c-0.735-0.646-1.102-1.392-1.102-2.231c0-0.971,0.425-1.767,1.268-2.383
				c0.846-0.617,1.945-0.927,3.304-0.927c1.243,0,2.194,0.208,2.848,0.623c0.663,0.416,1.395,1.048,2.2,1.893l3.066-2.47
				c-1.033-1.34-2.318-2.334-3.872-2.991c-1.542-0.654-3.077-0.985-4.58-0.985c-2.271,0-4.208,0.704-5.8,2.111
				c-1.596,1.397-2.392,3.096-2.392,5.091c0,0.824,0.145,1.606,0.427,2.334c0.28,0.728,0.728,1.46,1.337,2.193
				c0.612,0.738,1.342,1.37,2.176,1.897c0.833,0.531,2.023,1.118,3.576,1.754c1.55,0.638,2.679,1.201,3.386,1.696
				c0.713,0.497,1.306,1.121,1.787,1.883c0.481,0.763,0.714,1.523,0.714,2.277c0,1.262-0.456,2.305-1.362,3.135
				C142.069,26.66,140.929,27.068,139.555,27.068z M161.08,30.149V6.13h6.604V2.332h-16.929V6.13h6.587v24.019H161.08z
				 M193.718,30.149L180.646,1.264l-12.955,28.885h3.93l3.174-7.114h11.748l3.209,7.114H193.718z M176.214,19.864l4.424-9.918
				l4.475,9.918H176.214z M205.74,31.086c3.219,0,5.791-1.015,7.723-3.059c1.938-2.033,2.908-4.755,2.908-8.163V2.382h-3.779v17.746
				c0,2.314-0.615,4.105-1.842,5.381c-1.227,1.271-2.938,1.912-5.137,1.912c-2.221,0-3.93-0.694-5.145-2.077
				c-1.203-1.379-1.811-3.339-1.811-5.871V2.382h-3.779v16.455c0,4.031,0.988,7.081,2.963,9.152
				C199.82,30.057,202.451,31.086,205.74,31.086z M226.011,18.706h0.854l7.68,11.444h4.338l-8.047-11.905
				c2.572-0.582,4.467-1.587,5.68-3.012c1.213-1.423,1.824-3.073,1.824-4.927c0-2.331-0.941-4.235-2.814-5.731
				c-1.879-1.495-4.309-2.242-7.289-2.242h-5.992v27.818h3.768V18.706z M226.011,5.695c2.109,0,3.699,0.138,4.787,0.403
				c1.086,0.271,1.953,0.781,2.609,1.528c0.652,0.753,0.973,1.716,0.973,2.893c0,3.366-2.789,4.988-8.369,4.872V5.695z
				 M247.896,23.035h11.748l3.213,7.114h3.963L253.75,1.264l-12.963,28.885h3.938L247.896,23.035z M253.74,9.946l4.469,9.918h-8.9
				L253.74,9.946z M294.087,2.332h-3.781v20.027L269.841,1.221v28.929h3.783V10.388l20.463,21.051V2.332z M296.957,2.332V6.13h6.582
				v24.019h3.738V6.13h6.607V2.332H296.957z M94.732,40.83c-3.515,3.693-5.27,8.213-5.27,13.545c0,5.237,1.726,9.683,5.168,13.32
				c3.45,3.642,7.635,5.462,12.573,5.462c2.872,0,6.457-0.725,10.754-2.167v-8.925c-3.833,2.224-7.132,3.34-9.89,3.34
				c-3.146,0-5.657-0.99-7.541-2.96c-1.885-1.976-2.823-4.608-2.823-7.9c0-3.48,0.891-6.25,2.687-8.313
				c1.787-2.054,4.17-3.081,7.145-3.081c2.986,0,6.452,1.188,10.423,3.586v-8.979c-3.706-1.645-7.183-2.476-10.423-2.476
				C102.507,35.281,98.24,37.132,94.732,40.83z M145.226,49.992h-12.988V35.794h-7.902V72.65h7.902V57.993h12.988V72.65h7.906
				V35.794h-7.906V49.992z M160.841,72.65h20.643v-7.298h-12.732v-7.639h12.732v-7.19h-12.732V43.09h12.732v-7.296h-20.643V72.65z
				 M188.431,72.65h20.643v-7.298h-12.738v-7.639h12.738v-7.19h-12.738V43.09h12.738v-7.296h-20.643V72.65z M238.123,35.794h-24.668
				v7.831h8.357V72.65h7.898V43.625h8.412V35.794z M252.527,35.794L237.837,72.65h7.914l2.879-7.245h14.074l2.938,7.245h7.955
				l-14.943-36.856H252.527z M251.281,58.726l4.314-10.862l4.396,10.862H251.281z M299.49,49.992h-12.996V35.794h-7.902V72.65h7.902
				V57.993h12.996V72.65h7.906V35.794h-7.906V49.992z M60.786,37.292c0.356,0,0.654-0.297,0.654-0.662l-6.596-9.942
				c-0.32-0.447-0.63-0.656-0.993-0.656H44.15c-0.369,0-0.661,0.296-0.661,0.656v5.349c0,0.524,0.267,0.82,0.661,0.964
				L60.786,37.292z M51.875,50.363c-1.911,0-3.464,1.555-3.464,3.462c0,1.917,1.553,3.467,3.464,3.467
				c1.913,0,3.463-1.55,3.463-3.467C55.337,51.917,53.788,50.363,51.875,50.363z M75.382,0.855
				c-2.163,0.283-74.626,12.27-74.626,12.27H33.53c0.783,0,2.293,0.587,2.461,2.969l3.773,28.23l0.06-19.641
				c0-1.379,1.384-2.062,2.756-2.062h12.519c0.356,0,1.591,0.379,2.774,2.106c0,0,4.33,5.939,8.125,12.618
				c5.542,9.206-0.648,16.334-2.058,16.4c-0.375,0.017-1.429,0.03-2.865,0.037c-0.029-5.062-4.134-9.159-9.202-9.159
				c-5.074,0-9.189,4.11-9.206,9.189H18.288l4.637,1.705v0.112l50.877,18.153l2.193,0.277c1.531,0,2.561-1.513,2.561-3.386V4.269
				C78.556,2.668,78.06,0.508,75.382,0.855z M51.875,61.003c-3.959,0-7.172-3.217-7.172-7.179c0-3.959,3.213-7.171,7.172-7.171
				c3.962,0,7.174,3.212,7.174,7.171C59.048,57.787,55.836,61.003,51.875,61.003z"/>
		</g>
	</g>
</g>
</svg>
