<?xml version="1.0" encoding="UTF-8"?>
<svg width="8px" height="38px" viewBox="0 0 8 38" version="1.1" xmlns="http://www.w3.org/2000/svg" xmlns:xlink="http://www.w3.org/1999/xlink">
    <!-- Generator: Sketch 43.2 (39069) - http://www.bohemiancoding.com/sketch -->
    <title>vertical-ellipsis</title>
    <desc>Created with Sketch.</desc>
    <defs></defs>
    <g id="Symbols" stroke="none" stroke-width="1" fill="none" fill-rule="evenodd">
        <g id="SystemUI/StatusBar---Search/Cart/Options" transform="translate(-675.000000, -84.000000)" fill="#FFFFFF">
            <g id="vertical-ellipsis" transform="translate(675.000000, 84.000000)">
                <path d="M4,8 C1.7912,8 0,6.2088 0,4 C0,1.7912 1.7912,0 4,0 C6.2088,0 8,1.7912 8,4 C8,6.2088 6.2088,8 4,8 Z" id="Stroke-1"></path>
                <path d="M4,23 C1.7912,23 0,21.2088 0,19 C0,16.7912 1.7912,15 4,15 C6.2088,15 8,16.7912 8,19 C8,21.2088 6.2088,23 4,23 Z" id="Stroke-3"></path>
                <path d="M4,38 C1.7912,38 0,36.2088 0,34 C0,31.7912 1.7912,30 4,30 C6.2088,30 8,31.7912 8,34 C8,36.2088 6.2088,38 4,38 Z" id="Stroke-5"></path>
            </g>
        </g>
    </g>
</svg>